<?xml version="1.0" standalone="no"?>
<!DOCTYPE svg PUBLIC "-//W3C//DTD SVG 20010904//EN"
 "http://www.w3.org/TR/2001/REC-SVG-20010904/DTD/svg10.dtd">
<svg version="1.0" xmlns="http://www.w3.org/2000/svg"
 width="562.000000pt" height="562.000000pt" viewBox="0 0 562.000000 562.000000"
 preserveAspectRatio="xMidYMid meet">
<metadata>
Created by potrace 1.14, written by Peter Selinger 2001-2017
</metadata>
<g transform="translate(0.000000,562.000000) scale(0.100000,-0.100000)"
fill="#000000" stroke="none">
<path d="M3591 5420 c-7 -25 -18 -63 -27 -85 -25 -67 -36 -186 -24 -261 14
-87 64 -193 130 -274 29 -36 57 -76 62 -90 17 -44 10 -179 -16 -285 -13 -55
-24 -100 -23 -101 1 -1 45 -13 97 -28 187 -53 404 -159 555 -270 104 -77 249
-204 251 -222 1 -9 -1 -13 -4 -9 -4 4 -7 12 -7 18 0 5 -6 12 -14 15 -8 3 -11
0 -8 -5 3 -5 2 -15 -4 -23 -5 -8 -9 -10 -9 -4 0 6 -7 11 -16 11 -15 0 -16 -12
-11 -101 7 -121 61 -306 89 -306 5 0 7 -4 3 -9 -3 -5 1 -16 9 -24 8 -8 13 -17
10 -19 -2 -3 7 -4 21 -3 14 2 25 -1 25 -6 0 -8 -15 -13 -33 -10 -4 1 -1 -12 8
-29 9 -17 20 -28 25 -25 16 10 11 25 -7 25 -15 0 -15 2 -4 9 14 9 43 -8 35
-21 -2 -3 -1 -8 3 -11 5 -2 3 -2 -4 -1 -6 2 -14 -4 -17 -12 -4 -10 -2 -12 6
-8 8 5 9 2 5 -10 -5 -12 -3 -15 6 -9 18 11 38 13 31 2 -3 -5 -1 -9 5 -9 16 0
25 22 12 30 -14 8 -5 56 12 67 6 4 7 1 2 -8 -8 -12 -6 -12 8 0 15 12 21 9 18
-11 -1 -12 27 3 32 17 4 9 -6 12 -35 12 -38 -1 -41 2 -53 36 -7 20 -10 39 -7
42 3 3 0 5 -7 5 -8 0 -11 -7 -7 -15 3 -8 1 -15 -4 -15 -6 0 -10 15 -10 34 0
19 -4 36 -8 38 -4 2 -2 14 6 28 14 25 14 25 8 1 l-5 -23 22 20 c20 18 51 22
65 7 3 -3 5 -26 3 -50 -2 -37 0 -44 13 -39 9 3 16 13 16 21 0 8 -4 12 -10 8
-5 -3 -3 6 5 21 8 16 11 35 6 48 -5 11 -6 26 -4 33 3 7 -8 15 -24 20 l-28 7
25 7 25 7 -25 2 c-14 1 -28 2 -32 2 -3 -1 -11 4 -17 12 -8 9 -6 12 7 11 9 0
22 -4 28 -8 6 -3 11 0 11 8 0 8 -10 15 -21 16 -12 0 -15 3 -8 6 6 2 12 11 12
18 0 7 11 15 25 17 14 3 22 1 18 -5 -3 -5 3 -6 17 -2 15 5 20 3 16 -3 -10 -16
11 -24 31 -13 17 10 16 10 -2 11 -19 1 -19 2 -1 9 18 7 18 8 2 14 -10 4 -23 4
-28 0 -7 -3 -8 -1 -4 5 4 7 28 13 54 14 43 1 41 2 -18 8 l-65 7 55 1 c30 1 81
8 113 16 31 7 57 11 57 8 0 -2 7 1 15 8 13 11 18 10 31 -8 14 -21 42 -32 30
-13 -4 5 2 7 13 4 10 -3 22 0 25 6 4 6 14 11 22 11 8 0 12 -5 9 -10 -4 -6 -11
-7 -17 -4 -7 4 -8 2 -4 -5 4 -6 11 -9 16 -6 5 3 11 1 15 -5 3 -5 -3 -10 -15
-10 -12 0 -18 -5 -15 -10 4 -6 11 -8 16 -5 5 4 9 -1 9 -9 0 -8 -4 -18 -10 -21
-5 -3 -10 1 -10 11 0 14 -3 14 -16 3 -14 -11 -13 -13 3 -22 22 -13 33 -28 27
-39 -3 -4 0 -8 6 -8 7 0 9 -7 6 -16 -3 -8 -2 -12 3 -9 5 3 12 1 16 -5 4 -6 13
-7 23 -1 9 4 23 6 29 4 7 -3 16 3 19 12 6 13 9 14 16 3 8 -10 9 -10 5 2 -2 8
-11 14 -20 12 -8 -1 -18 2 -22 8 -4 6 -3 10 2 9 34 -6 42 10 18 35 -9 9 -11
17 -5 21 5 3 15 -6 20 -21 13 -33 23 -26 14 10 -4 18 -13 26 -28 26 -15 0 -17
3 -7 9 9 6 11 16 5 32 -4 13 -7 30 -6 37 2 6 -4 12 -13 12 -10 0 -14 -5 -10
-12 4 -7 -1 -4 -9 6 -9 11 -16 23 -16 27 0 3 -11 4 -24 2 -13 -3 -26 -1 -29 4
-3 4 5 8 16 9 12 0 29 2 37 5 10 3 14 -2 12 -16 -3 -15 -1 -17 8 -9 8 8 6 20
-10 48 -12 20 -19 36 -16 36 4 0 1 6 -6 14 -7 8 -17 11 -22 8 -5 -3 -6 0 -2 6
8 13 -23 72 -37 72 -5 0 -5 -6 1 -13 7 -8 6 -18 -3 -31 -13 -16 -14 -15 -13
14 1 21 -5 38 -16 46 -11 7 -15 18 -10 25 5 9 10 6 15 -9 5 -12 13 -22 19 -22
11 0 -23 71 -52 109 -16 21 -23 21 -19 -2 0 -4 -2 -6 -6 -6 -5 1 -10 1 -13 -1
-3 -1 -16 -4 -30 -6 -14 -3 -26 -9 -28 -14 -2 -6 -8 -10 -14 -10 -7 0 -6 5 1
14 9 11 9 15 -1 19 -7 3 -4 5 7 5 45 -2 65 3 65 16 0 9 -7 12 -22 9 -16 -3
-19 -2 -10 5 11 7 11 12 -2 24 -8 9 -12 18 -9 22 9 9 25 8 20 -1 -3 -5 7 -17
21 -27 l25 -19 -19 32 c-23 38 -59 75 -49 49 4 -9 -3 -21 -19 -32 -16 -10 -26
-12 -26 -5 0 6 9 13 19 16 16 4 17 8 8 18 -7 7 -14 9 -18 3 -3 -5 -21 -11 -39
-13 -30 -4 -63 -32 -54 -46 2 -4 -3 -12 -11 -19 -12 -10 -14 -8 -10 8 3 17 1
18 -20 8 -13 -6 -21 -14 -19 -18 9 -14 -14 -17 -26 -3 -9 11 -17 12 -30 5 -15
-8 -20 -6 -25 9 -4 13 -11 18 -22 14 -12 -5 -15 -2 -10 10 4 11 1 17 -8 17
-22 0 -18 18 7 31 18 10 20 9 15 -4 -4 -11 -2 -14 9 -10 8 3 21 -1 30 -8 14
-12 14 -14 -3 -21 -12 -6 -8 -6 11 -3 19 4 32 1 37 -7 7 -10 9 -9 9 3 0 9 -10
21 -22 28 l-23 12 23 -5 c12 -2 22 0 22 6 0 5 4 7 8 4 4 -2 14 -1 21 3 10 6
10 14 3 27 -13 24 -88 27 -102 4 -6 -9 -10 -10 -10 -3 0 7 -12 1 -26 -12 -15
-14 -31 -25 -36 -25 -5 0 -7 -4 -3 -9 3 -5 2 -12 -3 -15 -13 -8 -7 -71 6 -71
6 0 16 -5 23 -12 9 -9 7 -11 -6 -9 -26 4 -68 58 -52 68 8 5 7 8 -5 8 -9 0 -19
4 -23 9 -3 6 5 8 19 5 30 -5 41 9 21 26 -8 7 -13 16 -10 20 3 4 -7 11 -23 15
-26 6 -26 7 -8 21 11 8 16 14 11 14 -5 0 -17 -8 -27 -17 -14 -12 -21 -14 -30
-5 -6 6 -9 15 -5 19 6 5 297 42 345 43 22 0 13 20 -10 21 -18 1 -19 2 -5 6 26
7 50 -16 36 -33 -8 -10 -8 -14 0 -14 6 0 11 5 11 11 0 5 5 7 11 4 6 -4 8 -14
4 -23 -3 -9 -3 -13 1 -9 4 4 14 1 23 -6 8 -6 5 3 -8 20 -12 18 -19 38 -16 43
4 6 2 9 -5 8 -6 -2 -18 10 -28 26 -9 17 -28 41 -42 54 -14 13 -18 21 -10 17 8
-4 -3 9 -25 28 -22 19 -44 33 -49 29 -5 -3 -6 0 -2 6 9 14 -192 216 -289 291
-38 30 -61 45 -51 33 11 -13 14 -22 7 -22 -9 0 -8 -4 1 -14 9 -10 15 -10 20
-3 5 8 13 5 27 -7 20 -18 20 -20 3 -32 -9 -7 -12 -14 -7 -14 6 0 16 5 23 12 9
9 20 4 47 -22 39 -38 46 -56 14 -39 -17 9 -20 8 -16 -3 2 -7 10 -12 17 -10 8
2 11 -4 7 -17 -3 -11 -2 -20 2 -19 15 3 43 -16 50 -35 7 -19 8 -19 26 -1 18
19 18 18 13 -3 -3 -13 -2 -23 3 -23 5 0 9 8 9 17 0 13 3 14 12 5 9 -9 7 -16
-7 -32 -11 -12 -13 -20 -6 -20 6 0 14 7 17 15 4 8 10 12 16 9 5 -3 4 -13 -4
-22 -11 -15 -11 -15 4 -4 14 11 19 10 32 -10 20 -28 20 -39 1 -32 -17 7 -79
-51 -70 -66 3 -6 0 -7 -9 -4 -14 5 -14 8 -1 21 9 8 13 19 10 24 -4 5 -1 9 4 9
6 0 11 5 11 12 0 6 -3 8 -7 5 -3 -4 -15 1 -26 10 -10 10 -21 17 -23 16 -7 -4
-45 13 -45 20 1 4 -2 8 -6 8 -5 1 -15 16 -23 34 -10 21 -21 31 -32 29 -10 -1
-18 4 -18 12 0 9 5 12 13 8 6 -4 3 2 -7 14 -19 22 -32 30 -21 13 3 -6 -3 -9
-13 -8 -13 1 -18 7 -15 18 3 10 0 26 -6 36 -10 15 -10 14 -7 -9 4 -22 1 -28
-13 -28 -22 0 -71 23 -71 33 0 5 -4 5 -10 2 -5 -3 -10 -1 -10 6 0 8 -4 8 -15
-1 -14 -11 -14 -10 -5 14 6 18 6 25 0 21 -6 -3 -10 1 -10 9 0 9 -7 16 -16 16
-8 0 -13 4 -10 9 3 5 -2 11 -12 13 -15 4 -18 1 -14 -18 2 -13 9 -21 16 -18 7
3 19 -2 26 -11 8 -9 8 -15 2 -15 -6 0 -13 4 -17 9 -3 6 -14 8 -25 6 -11 -2
-19 1 -17 8 1 6 -3 11 -10 12 -6 0 -15 4 -20 9 -5 5 -3 6 5 2 7 -5 12 -1 12
10 0 11 -6 15 -19 11 -13 -3 -18 0 -15 8 3 7 13 11 24 8 21 -6 36 12 19 23 -8
5 -9 3 -4 -7 4 -8 -1 -5 -12 6 -16 15 -18 24 -10 35 9 13 9 13 -3 2 -8 -7 -15
-20 -15 -29 0 -9 -10 -18 -24 -20 -21 -3 -22 -2 -10 14 13 17 13 17 -13 0 -33
-21 -39 -21 -32 -4 3 8 -3 20 -12 28 -10 8 -15 9 -11 2 4 -6 3 -14 -2 -18 -6
-3 -8 6 -5 21 3 18 1 24 -8 19 -7 -4 -4 1 6 9 20 16 19 16 -1 16 -12 0 -24 -6
-26 -12 -3 -7 -6 -3 -6 10 -1 24 -19 26 -37 3 -6 -8 -17 -11 -25 -8 -10 4 -9
6 4 6 18 1 22 18 8 40 -5 8 -14 10 -22 5 -12 -6 -12 -5 0 9 19 23 31 21 31 -5
0 -18 2 -20 10 -8 5 9 5 19 0 26 -6 6 -6 15 -2 19 4 5 2 5 -4 2 -6 -3 -22 0
-37 8 -15 8 -27 11 -27 7 0 -4 -4 -2 -8 3 -9 13 -64 39 -76 36 -5 -1 -3 6 4
16 8 10 11 15 6 11 -4 -3 -24 1 -44 9 -25 10 -37 12 -40 4 -5 -14 -22 -15 -22
-1 0 5 11 12 25 16 14 3 25 10 25 14 0 5 3 17 6 27 4 12 1 11 -8 -4 -9 -16
-17 -20 -28 -13 -8 5 -17 7 -21 4 -4 -2 -10 0 -14 5 -3 6 3 8 15 6 11 -2 20 1
20 6 0 6 4 8 9 5 5 -3 11 1 14 9 4 10 1 12 -10 8 -12 -5 -15 -2 -11 8 3 8 -1
20 -9 28 -13 12 -14 11 -9 -6 5 -16 2 -19 -24 -17 -17 1 -36 6 -43 11 -7 4 -5
1 4 -8 14 -13 15 -19 6 -30 -7 -7 -2 -5 10 5 19 15 27 17 45 8 23 -10 23 -11
-4 -11 -25 -1 -28 -5 -28 -36 0 -21 5 -35 13 -35 6 -1 3 -6 -9 -13 -12 -7 -19
-18 -16 -26 4 -12 3 -12 -11 0 -11 10 -12 19 -5 34 9 20 9 20 -6 1 -9 -11 -16
-29 -16 -40 0 -17 2 -18 10 -6 6 9 10 10 10 3 0 -19 -16 -23 -48 -12 -35 12
-51 52 -29 78 7 9 13 23 12 31 -1 8 -3 21 -3 28 -1 6 -10 12 -19 12 -15 0 -15
-2 2 -14 17 -12 17 -15 3 -29 -14 -15 -16 -13 -22 14 -3 17 -9 87 -12 157 -8
147 -17 177 -33 112z m304 -408 c-3 -3 -11 0 -18 7 -9 10 -8 11 6 5 10 -3 15
-9 12 -12z m-109 -3 c3 -6 17 -9 29 -7 18 4 22 1 17 -10 -4 -11 -1 -14 11 -9
11 4 17 1 17 -8 0 -13 25 -20 52 -16 4 0 5 -6 2 -14 -4 -8 -1 -16 5 -16 6 -1
15 -2 20 -3 6 0 15 -6 22 -13 6 -6 17 -9 23 -7 7 3 17 -6 24 -20 10 -24 9 -23
-49 11 -32 19 -59 40 -59 45 0 5 -3 7 -7 5 -5 -3 -42 12 -83 34 -48 24 -67 38
-53 39 12 0 25 -5 29 -11z m302 -172 c14 4 14 3 2 -5 -16 -12 -30 -7 -29 11 0
9 2 9 5 0 3 -7 13 -9 22 -6z m32 -32 c0 4 6 2 14 -4 11 -9 15 -9 19 1 3 7 6 4
6 -7 1 -17 3 -17 11 -5 5 8 10 10 10 4 0 -29 -26 -32 -55 -6 -17 15 -25 23
-18 18 7 -5 13 -5 13 -1z m96 -48 c10 4 12 0 7 -13 -4 -12 -3 -15 6 -10 7 5
10 2 9 -6 -2 -7 3 -12 11 -10 8 2 11 -3 8 -12 -6 -15 28 -53 35 -39 3 4 3 2 1
-6 -2 -8 2 -11 11 -8 8 3 20 -2 28 -10 11 -15 10 -16 -7 -10 -16 6 -15 3 5
-13 14 -11 20 -20 14 -20 -6 0 -35 26 -65 57 -30 31 -56 56 -59 56 -11 -3 -49
40 -44 49 4 6 10 6 16 0 6 -6 17 -8 24 -5z m463 -135 c3 -1 -1 -8 -7 -14 -9
-9 -12 -8 -12 6 0 9 -4 14 -10 11 -5 -3 -10 2 -10 12 0 14 -2 15 -9 4 -6 -9
-11 -10 -15 -2 -16 25 7 32 33 9 14 -13 28 -24 30 -26z m-292 -46 c-1 -5 4
-10 12 -11 8 0 15 -8 17 -19 2 -15 -3 -13 -27 10 -34 32 -33 31 -15 31 8 0 14
-5 13 -11z m64 -63 c13 -16 12 -17 -3 -4 -10 7 -18 15 -18 17 0 8 8 3 21 -13z
m163 -34 c-3 -5 -11 -9 -17 -8 -8 0 -8 2 1 6 10 4 10 8 0 21 -12 15 -11 16 4
3 10 -7 15 -17 12 -22z m-112 7 c3 2 8 -2 12 -11 4 -13 2 -14 -14 -5 -10 5
-22 16 -26 23 -6 9 -5 9 8 0 8 -7 17 -10 20 -7z m260 -14 c-7 -2 -12 -10 -12
-18 0 -8 -4 -14 -8 -14 -12 0 -11 34 2 42 5 4 15 4 20 1 6 -4 5 -8 -2 -11z
m-118 -8 c3 -8 2 -12 -4 -9 -6 3 -10 10 -10 16 0 14 7 11 14 -7z m171 5 c11
-16 1 -19 -13 -3 -7 8 -8 14 -3 14 5 0 13 -5 16 -11z m-255 -15 c0 -8 -19 -13
-24 -6 -3 5 1 9 9 9 8 0 15 -2 15 -3z m43 -26 c3 -10 8 -10 21 1 13 11 19 12
29 2 9 -10 8 -11 -6 -5 -29 11 -10 -21 21 -34 25 -10 25 -11 2 -5 -14 3 -45
16 -70 29 -33 17 -39 23 -23 24 12 0 23 -6 26 -12z m204 -74 c-3 -3 -12 -4
-19 -1 -8 3 -5 6 6 6 11 1 17 -2 13 -5z m50 -10 c-3 -3 -12 -4 -19 -1 -8 3 -5
6 6 6 11 1 17 -2 13 -5z m-223 -139 c15 -23 15 -24 -6 -20 -12 3 -26 10 -32
16 -8 9 -8 10 1 5 9 -5 11 -2 7 8 -3 9 -11 13 -17 9 -6 -3 -7 -1 -3 5 9 15 32
5 50 -23z m321 -25 c3 -5 1 -10 -4 -10 -6 0 -11 5 -11 10 0 6 2 10 4 10 3 0 8
-4 11 -10z m-36 -26 c-6 -7 -15 -11 -21 -8 -5 3 -4 12 3 20 6 7 15 11 21 8 5
-3 4 -12 -3 -20z m-219 6 c0 -5 -5 -10 -11 -10 -5 0 -7 5 -4 10 3 6 8 10 11
10 2 0 4 -4 4 -10z m294 -35 c-4 -8 -7 -15 -9 -15 -2 0 -5 7 -9 15 -3 9 0 15
9 15 9 0 12 -6 9 -15z m-29 -40 c0 -18 -4 -25 -18 -25 -15 0 -17 3 -8 13 6 8
8 24 6 37 -3 18 -2 21 7 12 6 -6 12 -23 13 -37z m130 -6 c-4 -6 1 -16 11 -23
11 -9 13 -15 6 -20 -13 -8 -36 30 -27 44 3 6 8 10 11 10 3 0 2 -5 -1 -11z
m-36 -11 c6 10 10 7 15 -13 4 -15 5 -30 1 -33 -3 -3 -5 2 -5 11 0 10 -7 17
-15 17 -8 0 -15 -5 -15 -11 0 -5 4 -8 9 -4 6 3 9 -4 8 -15 -1 -22 -6 -24 -24
-12 -10 6 -11 28 -4 72 1 3 6 -2 11 -10 8 -12 12 -13 19 -2z m-334 -13 c6 0
10 -7 10 -15 0 -9 8 -14 20 -12 14 2 16 0 7 -6 -9 -6 -6 -14 13 -32 14 -13 25
-18 25 -12 0 7 5 12 11 12 8 0 8 -4 0 -14 -9 -11 -8 -14 6 -12 10 0 17 -5 15
-12 -1 -9 6 -7 25 5 17 10 23 11 16 3 -19 -21 -16 -34 5 -19 9 7 14 10 10 5
-9 -11 14 -35 29 -29 6 3 20 -1 30 -7 16 -10 16 -11 -4 -7 -13 3 -24 -1 -27
-10 -4 -11 -10 -11 -26 -3 -11 6 -17 16 -14 22 4 6 3 8 -4 5 -5 -4 -32 10 -59
32 -51 41 -139 130 -113 115 8 -5 20 -9 25 -9z m72 -20 c0 -8 -4 -12 -9 -9 -5
3 -6 10 -3 15 9 13 12 11 12 -6z m213 -35 c0 -22 -4 -40 -10 -40 -5 0 -6 7 -3
17 5 12 3 14 -8 7 -26 -16 -37 -12 -42 13 -3 18 1 27 17 33 39 16 46 12 46
-30z m45 -10 c11 -5 14 -9 6 -9 -8 -1 -19 -9 -26 -18 -11 -15 -12 -14 -12 10
0 29 2 30 32 17z m75 -22 c0 -4 -7 -8 -15 -8 -8 0 -14 -4 -12 -9 1 -5 -1 -9
-5 -10 -5 -1 -8 1 -8 4 0 3 0 11 0 19 0 9 9 14 20 13 11 -1 20 -5 20 -9z
m-210 -28 c0 -5 -5 -10 -11 -10 -5 0 -7 5 -4 10 3 6 8 10 11 10 2 0 4 -4 4
-10z m257 -5 c0 -8 -4 -12 -9 -9 -5 3 -6 10 -3 15 9 13 12 11 12 -6z m-47 -16
c0 -11 -4 -18 -10 -14 -5 3 -7 12 -3 20 7 21 13 19 13 -6z m-118 -21 c-9 -9
-15 -9 -24 1 -11 11 -10 13 5 8 10 -4 17 -2 17 5 0 6 3 8 7 5 4 -4 1 -13 -5
-19z m83 -20 c0 -33 -25 -47 -32 -19 -3 12 -11 17 -19 14 -19 -7 -18 7 2 21
28 21 49 14 49 -16z m-135 -1 c0 -8 3 -8 9 1 6 10 11 9 22 -4 9 -11 9 -15 2
-10 -9 5 -11 2 -7 -8 3 -9 11 -13 17 -9 6 3 7 1 3 -5 -5 -9 -18 -6 -47 8 -43
22 -50 35 -19 37 11 1 20 -4 20 -10z m253 -24 c-5 -12 -3 -14 7 -8 9 6 11 4 5
-4 -10 -16 -27 0 -32 30 -3 18 -1 20 11 10 8 -7 12 -20 9 -28z m-173 -9 c0 -3
-7 -1 -15 6 -8 7 -15 17 -15 22 0 5 7 3 15 -6 8 -8 15 -18 15 -22z m123 7 c4
-1 7 -5 7 -10 0 -5 -8 -8 -17 -6 -10 1 -23 -2 -29 -7 -7 -5 -16 -8 -20 -6 -5
1 -20 -4 -33 -11 -18 -10 -22 -10 -16 0 6 9 3 11 -8 6 -14 -5 -15 -3 -5 13 8
12 16 16 23 10 6 -5 20 -7 30 -5 11 2 24 4 28 4 5 1 6 5 3 10 -4 5 2 8 11 6
10 -2 21 -4 26 -4z m-68 -51 c-3 -5 3 -10 14 -10 12 0 21 -4 21 -9 0 -6 -12
-6 -31 1 -23 8 -27 13 -17 19 17 11 20 11 13 -1z m-459 -26 c2 -11 -1 -12 -10
-5 -7 6 -17 7 -22 3 -4 -4 -2 1 5 11 15 19 24 16 27 -9z m-92 0 c3 -8 2 -12
-4 -9 -6 3 -10 10 -10 16 0 14 7 11 14 -7z m131 -12 c-3 -3 -11 0 -18 7 -9 10
-8 11 6 5 10 -3 15 -9 12 -12z m540 8 c-3 -5 -1 -10 4 -10 6 0 11 -4 11 -10 0
-5 -7 -10 -15 -10 -15 0 -21 21 -8 33 10 10 15 8 8 -3z m-65 -15 c0 -11 -7
-14 -24 -11 -14 2 -27 0 -30 -5 -2 -5 -3 -4 -2 3 1 7 13 15 27 19 13 4 25 7
27 8 1 1 2 -6 2 -14z m120 -19 c0 -3 -4 -8 -10 -11 -5 -3 -10 -1 -10 4 0 6 5
11 10 11 6 0 10 -2 10 -4z m-467 -23 c-7 -2 -19 -2 -25 0 -7 3 -2 5 12 5 14 0
19 -2 13 -5z m-10 -20 c-7 -2 -19 -2 -25 0 -7 3 -2 5 12 5 14 0 19 -2 13 -5z
m-33 -41 c0 -4 -10 -9 -22 -9 -18 -2 -20 0 -8 7 18 12 30 13 30 2z m480 -62
c-19 -13 -30 -13 -30 0 0 6 10 10 23 10 18 0 19 -2 7 -10z m-562 -154 c-7 -8
-15 -12 -17 -11 -5 6 10 25 20 25 5 0 4 -6 -3 -14z m-24 -41 c-8 -20 6 -19 23
3 12 15 13 14 2 -8 -16 -34 -16 -34 -33 -18 -11 12 -12 18 -3 27 15 15 18 14
11 -4z m74 -70 c-1 -13 -6 -21 -10 -17 -5 5 -6 16 -2 25 9 24 14 21 12 -8z"/>
<path d="M4195 4740 c10 -11 20 -20 23 -20 3 0 -3 9 -13 20 -10 11 -20 20 -23
20 -3 0 3 -9 13 -20z"/>
<path d="M2718 5413 c45 -2 119 -2 165 0 45 1 8 3 -83 3 -91 0 -128 -2 -82 -3z"/>
<path d="M2443 5393 c9 -2 23 -2 30 0 6 3 -1 5 -18 5 -16 0 -22 -2 -12 -5z"/>
<path d="M3143 5393 c9 -2 23 -2 30 0 6 3 -1 5 -18 5 -16 0 -22 -2 -12 -5z"/>
<path d="M2368 5383 c6 -2 18 -2 25 0 6 3 1 5 -13 5 -14 0 -19 -2 -12 -5z"/>
<path d="M3218 5383 c6 -2 18 -2 25 0 6 3 1 5 -13 5 -14 0 -19 -2 -12 -5z"/>
<path d="M2710 5364 c8 -9 9 -14 2 -14 -6 0 -18 -3 -28 -7 -13 -5 -16 -3 -11
10 5 12 1 17 -13 17 -14 0 -18 -6 -15 -20 2 -12 0 -18 -6 -15 -5 4 -7 10 -4
15 8 13 -9 20 -25 10 -7 -4 -24 -4 -37 1 -16 6 -22 5 -18 -1 4 -6 -19 -10 -60
-10 -42 0 -64 4 -60 10 3 6 -1 10 -10 10 -11 0 -15 -5 -12 -14 4 -10 -3 -13
-29 -9 -19 3 -43 1 -52 -3 -9 -4 -39 -8 -66 -10 -27 -1 -52 -7 -56 -13 -8 -13
-116 -35 -130 -26 -17 11 -11 -7 8 -21 16 -12 16 -13 -3 -10 -11 2 -25 0 -30
-5 -15 -11 -66 -19 -60 -9 8 13 -38 -2 -53 -17 -16 -15 -36 -18 -27 -3 3 6 -1
7 -10 4 -14 -6 -14 -8 1 -18 13 -10 10 -11 -20 -8 -26 3 -36 0 -37 -9 0 -8 -4
-5 -9 6 -6 14 -9 16 -9 4 -1 -10 -19 -20 -51 -28 -28 -7 -58 -20 -67 -29 -16
-16 -16 -16 -11 0 6 15 4 15 -25 3 -18 -8 -31 -19 -30 -25 2 -5 -2 -10 -7 -10
-6 0 -10 5 -10 10 0 6 -6 5 -14 -2 -8 -7 -12 -16 -9 -20 2 -4 -4 -5 -13 -1
-13 5 -15 3 -9 -8 7 -11 5 -11 -10 1 -17 14 -18 13 -12 -2 4 -13 2 -15 -10
-11 -10 4 -14 2 -10 -4 5 -7 -1 -9 -15 -5 -17 4 -20 2 -15 -12 4 -11 2 -16 -6
-14 -6 1 -31 -8 -53 -20 -23 -11 -45 -18 -49 -14 -5 4 -5 1 -1 -5 5 -9 0 -13
-13 -13 -22 0 -45 -32 -33 -46 4 -5 0 -4 -8 2 -11 8 -21 4 -40 -14 -25 -24
-25 -25 -2 -13 13 7 26 10 30 7 3 -3 -1 -6 -9 -6 -12 0 -11 -2 1 -10 11 -7 9
-8 -11 -6 -13 1 -30 6 -37 10 -7 4 -13 2 -13 -3 -1 -6 -2 -15 -3 -21 0 -5 -8
-15 -16 -22 -12 -11 -12 -11 -2 4 10 12 10 18 1 24 -7 4 -9 3 -5 -4 3 -6 -2
-16 -13 -21 -41 -22 -126 -103 -127 -121 -1 -11 4 -16 12 -13 8 3 11 10 7 16
-3 6 -1 7 5 3 17 -10 16 -12 -33 -41 -25 -14 -51 -23 -58 -19 -6 4 -9 4 -5 -1
4 -4 -23 -29 -61 -55 -151 -104 -280 -210 -255 -210 5 0 38 9 74 21 89 28 321
85 400 99 36 6 76 14 90 17 21 5 23 4 13 -8 -10 -13 -7 -15 19 -13 17 1 34 8
39 16 4 7 21 14 36 15 25 1 23 -1 -17 -22 -25 -13 -48 -21 -52 -18 -5 2 -8 -1
-8 -7 0 -6 -4 -8 -10 -5 -5 3 -10 2 -10 -4 0 -6 -19 -20 -42 -32 -131 -66
-422 -284 -572 -429 -257 -246 -416 -505 -481 -783 l-13 -58 61 57 c158 146
371 298 561 399 l110 59 -110 -110 c-183 -182 -327 -376 -433 -584 -75 -147
-73 -152 20 -60 102 100 249 219 367 298 121 81 121 81 83 37 -260 -308 -417
-587 -529 -936 -72 -225 -71 -213 -19 -369 81 -239 173 -429 313 -640 457
-691 1238 -1148 2039 -1194 l100 -6 -90 38 c-238 100 -468 249 -644 417 -231
220 -385 460 -485 757 -25 74 -46 140 -46 148 0 7 22 -29 48 -81 137 -270 338
-484 614 -655 252 -156 545 -251 908 -294 78 -9 406 -12 350 -3 -276 45 -555
153 -777 302 -170 114 -350 305 -453 481 -219 374 -249 892 -84 1440 125 413
341 784 660 1131 152 166 387 371 546 477 l67 44 36 -27 c19 -15 37 -26 40
-23 2 2 7 42 10 88 9 127 15 156 27 139 7 -10 8 -7 3 11 -40 163 -43 261 -9
415 8 39 17 82 20 97 5 20 2 27 -12 31 -16 4 -15 5 3 6 16 1 21 6 17 16 -5 11
-10 12 -18 5 -9 -6 -16 -6 -24 2 -9 9 -15 9 -24 0 -7 -7 -17 -12 -22 -12 -6 0
-4 5 4 10 11 7 11 10 2 10 -7 0 -10 4 -7 10 4 6 -1 7 -11 3 -14 -5 -15 -3 -4
18 12 23 11 22 -15 -3 -15 -16 -35 -28 -43 -28 -13 0 -12 3 4 15 19 14 18 14
-3 15 -13 0 -23 -4 -23 -10 0 -5 -7 -10 -15 -10 -8 0 -15 5 -15 11 0 6 -9 8
-22 4 -16 -4 -19 -3 -10 3 11 8 11 10 -1 15 -8 3 -19 1 -24 -4 -5 -5 -50 -3
-114 6 -64 9 -182 15 -306 15 -131 0 -203 4 -203 10 0 6 10 8 23 5 12 -3 69
-1 127 4 l105 9 -117 -1 c-64 -1 -120 2 -125 7 -4 5 -1 7 9 3 18 -6 42 15 30
28 -4 5 -1 5 6 1 7 -4 12 -2 12 5 0 8 4 8 15 -1 10 -9 15 -9 15 -1 0 6 8 11
18 11 13 0 14 -2 4 -9 -11 -7 -11 -9 2 -14 10 -4 16 -1 16 8 0 9 10 15 25 15
22 0 24 4 21 33 -2 24 -9 33 -25 35 -11 2 -21 7 -21 11 0 4 -9 7 -21 8 -17 2
-18 -1 -9 -13z m70 -54 c0 -5 -4 -10 -10 -10 -5 0 -10 5 -10 10 0 6 5 10 10
10 6 0 10 -4 10 -10z m-190 -20 c-8 -5 -19 -10 -25 -10 -5 0 -3 5 5 10 8 5 20
10 25 10 6 0 3 -5 -5 -10z m35 -10 c3 -5 1 -10 -4 -10 -6 0 -11 5 -11 10 0 6
2 10 4 10 3 0 8 -4 11 -10z m-194 -41 c3 -6 13 -7 22 -3 10 3 17 1 17 -5 0
-10 -21 -14 -65 -12 l-20 1 20 -9 20 -8 -20 -5 c-15 -4 -13 -6 8 -7 16 0 26 3
23 7 -2 4 12 6 32 4 34 -4 36 -4 22 13 -14 17 -14 17 9 6 13 -8 39 -11 58 -8
20 4 31 2 28 -4 -4 -5 -19 -9 -34 -9 -15 0 -74 -9 -132 -19 -57 -10 -115 -21
-129 -24 -14 -2 -19 -2 -13 0 8 3 4 13 -13 28 -25 23 -25 23 -4 30 13 4 27 2
34 -5 8 -10 6 -12 -11 -7 -15 3 -20 1 -16 -9 3 -8 9 -11 14 -8 5 3 9 0 9 -5 0
-6 9 -11 20 -11 11 0 20 4 20 9 0 4 12 7 28 5 27 -4 27 -4 2 5 -14 4 -30 4
-37 -1 -7 -5 -14 -5 -18 2 -3 5 0 10 7 10 8 1 6 6 -6 15 -21 16 -21 17 9 33
22 12 106 5 116 -9z m169 16 c0 -2 -9 -9 -20 -15 -12 -6 -20 -7 -20 -1 0 5 8
12 18 14 9 3 18 5 20 6 1 0 2 -1 2 -4z m-70 -15 c0 -5 -7 -10 -16 -10 -8 0
-12 5 -9 10 3 6 10 10 16 10 5 0 9 -4 9 -10z m-555 -21 c-4 -5 -12 -9 -18 -8
-9 0 -8 2 1 6 6 2 9 10 6 15 -4 7 -2 8 5 4 6 -4 9 -12 6 -17z m1412 -75 c-3
-3 -12 -4 -19 -1 -8 3 -5 6 6 6 11 1 17 -2 13 -5z m-1180 -10 c-3 -3 -12 -4
-19 -1 -8 3 -5 6 6 6 11 1 17 -2 13 -5z m-77 -24 c-8 -5 -22 -9 -30 -9 -10 0
-8 3 5 9 27 12 43 12 25 0z m-27 -37 c-7 -2 -19 -2 -25 0 -7 3 -2 5 12 5 14 0
19 -2 13 -5z m-599 -31 c3 -5 -1 -9 -9 -9 -8 0 -12 4 -9 9 3 4 7 8 9 8 2 0 6
-4 9 -8z m349 -9 c-3 -7 -9 -11 -13 -8 -5 3 -10 -1 -13 -7 -3 -10 -8 -10 -18
1 -8 8 -9 11 -3 8 7 -4 14 -1 17 6 3 8 12 14 20 14 8 0 13 -6 10 -14z m50 10
c-7 -2 -19 -2 -25 0 -7 3 -2 5 12 5 14 0 19 -2 13 -5z m66 -3 c-10 -7 -49 -2
-49 5 0 2 14 3 31 3 17 -1 25 -4 18 -8z m-359 -25 c-17 -21 -5 -31 17 -14 15
12 16 12 10 -3 -5 -13 0 -19 20 -24 16 -4 28 -3 30 3 2 6 13 8 25 5 14 -3 -21
-16 -98 -38 -65 -17 -121 -31 -122 -29 -3 3 92 33 151 48 4 1 -6 8 -23 14 -28
10 -31 10 -26 -4 5 -13 4 -14 -9 -3 -8 7 -15 8 -15 3 0 -5 -15 -9 -32 -10 -18
-1 -25 1 -15 4 9 2 17 9 17 14 0 5 7 9 16 9 8 0 12 5 9 10 -3 6 3 10 14 10 11
0 23 5 26 10 3 6 9 10 12 10 3 0 0 -7 -7 -15z m379 -1 c10 -9 -65 -3 -78 5
-10 6 1 8 30 4 24 -3 46 -7 48 -9z m164 9 c-23 -2 -64 -2 -90 0 -26 2 -7 3 42
3 50 0 71 -1 48 -3z m-471 -20 c-6 -2 -10 -9 -6 -14 3 -5 1 -9 -5 -9 -13 0
-22 15 -14 24 3 3 13 6 22 5 11 0 12 -2 3 -6z m211 0 c-7 -2 -21 -2 -30 0 -10
3 -4 5 12 5 17 0 24 -2 18 -5z m-389 -23 c-21 -8 -37 -3 -29 10 3 4 15 6 27 2
21 -5 21 -6 2 -12z m319 13 c-7 -2 -19 -2 -25 0 -7 3 -2 5 12 5 14 0 19 -2 13
-5z m-56 -9 c-3 -3 -12 -4 -19 -1 -8 3 -5 6 6 6 11 1 17 -2 13 -5z m-260 -40
c-3 -3 -12 -4 -19 -1 -8 3 -5 6 6 6 11 1 17 -2 13 -5z m-119 -29 c4 6 14 11
22 13 10 1 9 -2 -4 -13 -27 -20 -57 -20 -49 1 5 13 7 13 14 2 6 -8 12 -9 17
-3z m-58 -23 c0 -2 -6 -10 -14 -17 -12 -12 -15 -12 -18 3 -4 12 1 18 13 18 11
0 19 -2 19 -4z m110 -2 c-8 -5 -19 -10 -25 -10 -5 0 -3 5 5 10 8 5 20 10 25
10 6 0 3 -5 -5 -10z m-213 -39 c1 -11 -5 -22 -13 -25 -10 -4 -13 -2 -7 7 4 6
8 15 9 20 5 24 9 23 11 -2z m113 -1 c-8 -5 -19 -10 -25 -10 -5 0 -3 5 5 10 8
5 20 10 25 10 6 0 3 -5 -5 -10z m-86 -29 c3 -5 -1 -11 -9 -14 -9 -4 -12 -1 -8
9 6 16 10 17 17 5z m-84 -11 c0 -5 -5 -10 -11 -10 -5 0 -7 5 -4 10 3 6 8 10
11 10 2 0 4 -4 4 -10z m50 -14 c0 -2 -7 -7 -16 -10 -8 -3 -12 -2 -9 4 6 10 25
14 25 6z m-40 -20 c0 -2 -7 -7 -16 -10 -8 -3 -12 -2 -9 4 6 10 25 14 25 6z
m1160 -256 c0 -5 -14 -7 -32 -3 -40 7 -35 0 10 -15 19 -6 30 -7 27 -2 -10 16
11 11 25 -5 13 -16 31 -20 29 -7 -4 21 3 31 16 26 8 -4 12 -11 8 -17 -3 -5 -1
-7 4 -4 6 4 26 1 44 -7 30 -13 31 -14 11 -20 -12 -4 -27 -4 -33 0 -8 4 -9 3
-5 -4 4 -7 2 -12 -5 -12 -25 0 13 -28 96 -70 46 -24 82 -47 79 -52 -3 -4 1 -6
8 -3 7 3 24 -4 38 -15 28 -22 36 -22 -90 7 -58 13 -120 17 -270 17 -240 0
-411 -7 -379 -15 18 -4 11 -7 -29 -13 -29 -3 -96 -18 -148 -31 -53 -14 -101
-22 -107 -18 -5 3 -7 2 -4 -4 8 -12 -69 -37 -85 -27 -6 4 -8 3 -5 -3 3 -5 -11
-15 -31 -22 -20 -7 -58 -24 -84 -37 -27 -13 -48 -22 -48 -20 0 4 91 71 98 71
22 2 51 18 47 25 -3 5 0 12 6 16 8 5 10 2 5 -7 -4 -8 1 -3 12 10 12 15 24 21
32 16 8 -5 11 -4 7 2 -8 13 20 26 35 16 6 -3 8 -2 5 4 -8 13 140 86 155 77 7
-4 8 -2 4 4 -6 11 5 15 30 11 4 0 10 4 13 9 15 23 300 108 327 98 8 -3 14 -2
14 3 0 5 26 13 58 19 78 13 112 14 112 2z m47 -5 c0 -8 -4 -15 -9 -15 -10 0
-11 14 -1 23 9 10 10 9 10 -8z"/>
<path d="M2310 5236 c0 -2 7 -9 15 -16 13 -11 14 -10 9 4 -5 14 -24 23 -24 12z"/>
<path d="M2178 4353 c6 -2 18 -2 25 0 6 3 1 5 -13 5 -14 0 -19 -2 -12 -5z"/>
<path d="M2228 4353 c7 -3 16 -2 19 1 4 3 -2 6 -13 5 -11 0 -14 -3 -6 -6z"/>
<path d="M2268 4353 c6 -2 18 -2 25 0 6 3 1 5 -13 5 -14 0 -19 -2 -12 -5z"/>
<path d="M2073 4343 c9 -2 23 -2 30 0 6 3 -1 5 -18 5 -16 0 -22 -2 -12 -5z"/>
<path d="M1745 4330 c-4 -6 -11 -8 -16 -5 -5 3 -6 -1 -2 -11 5 -15 7 -15 15 0
9 17 28 13 28 -5 0 -6 -5 -7 -12 -3 -7 4 -8 3 -4 -4 4 -6 13 -9 22 -5 13 5 13
8 -2 24 -20 22 -21 22 -29 9z"/>
<path d="M1670 4310 c-9 -6 -10 -10 -3 -10 6 0 15 5 18 10 8 12 4 12 -15 0z"/>
<path d="M1805 4310 c-3 -5 1 -10 10 -10 9 0 13 5 10 10 -3 6 -8 10 -10 10 -2
0 -7 -4 -10 -10z"/>
<path d="M1691 4284 c0 -11 3 -14 6 -6 3 7 2 16 -1 19 -3 4 -6 -2 -5 -13z"/>
<path d="M1646 4281 c-3 -5 1 -11 9 -14 9 -4 12 -1 8 9 -6 16 -10 17 -17 5z"/>
<path d="M2268 5363 c7 -3 16 -2 19 1 4 3 -2 6 -13 5 -11 0 -14 -3 -6 -6z"/>
<path d="M3378 5353 c7 -3 16 -2 19 1 4 3 -2 6 -13 5 -11 0 -14 -3 -6 -6z"/>
<path d="M2298 5343 c7 -3 16 -2 19 1 4 3 -2 6 -13 5 -11 0 -14 -3 -6 -6z"/>
<path d="M3521 5306 c-9 -11 -9 -15 1 -19 10 -4 10 -8 -2 -17 -13 -10 -13 -11
0 -7 8 2 15 12 15 23 0 10 5 22 10 26 6 5 6 8 -1 8 -6 0 -17 -6 -23 -14z"/>
<path d="M2016 5261 c-4 -5 3 -7 14 -4 23 6 26 13 6 13 -8 0 -17 -4 -20 -9z"/>
<path d="M3087 5239 c7 -7 15 -10 18 -7 3 3 -2 9 -12 12 -14 6 -15 5 -6 -5z"/>
<path d="M3714 5238 c-4 -7 -4 -10 1 -6 4 4 14 3 22 -4 11 -8 12 -7 7 6 -7 19
-20 21 -30 4z"/>
<path d="M3521 5228 c0 -10 -6 -18 -12 -18 -5 0 -7 5 -3 11 4 7 1 10 -6 7 -18
-6 -26 -29 -8 -26 9 2 12 -7 11 -32 l-2 -35 15 40 c8 22 13 46 10 55 -3 11 -4
11 -5 -2z"/>
<path d="M3660 5224 c0 -6 7 -19 16 -30 14 -18 14 -18 3 6 -14 31 -19 36 -19
24z"/>
<path d="M3095 5211 c11 -5 45 -11 75 -14 l55 -5 -50 13 c-58 15 -114 19 -80
6z"/>
<path d="M3208 5213 c7 -3 16 -2 19 1 4 3 -2 6 -13 5 -11 0 -14 -3 -6 -6z"/>
<path d="M3453 5204 c-3 -9 -1 -19 6 -23 7 -4 9 -16 5 -27 -6 -18 -6 -18 9 1
13 17 13 20 -1 31 -8 6 -12 16 -8 22 4 7 5 12 1 12 -3 0 -8 -7 -12 -16z"/>
<path d="M3299 5193 c-13 -16 -12 -17 4 -4 9 7 17 15 17 17 0 8 -8 3 -21 -13z"/>
<path d="M3858 5188 c5 -5 16 -8 23 -6 8 3 3 7 -10 11 -17 4 -21 3 -13 -5z"/>
<path d="M1720 5180 c0 -5 7 -7 15 -4 8 4 15 8 15 10 0 2 -7 4 -15 4 -8 0 -15
-4 -15 -10z"/>
<path d="M3894 5156 c-3 -9 -9 -14 -13 -12 -4 3 -8 -9 -9 -25 -1 -16 3 -29 9
-29 6 0 8 7 5 17 -5 11 1 23 15 34 15 11 18 18 10 23 -6 4 -14 0 -17 -8z"/>
<path d="M3746 5131 c-4 -7 -5 -15 -2 -18 9 -9 19 4 14 18 -4 11 -6 11 -12 0z"/>
<path d="M3980 5131 c0 -6 4 -13 10 -16 6 -3 7 1 4 9 -7 18 -14 21 -14 7z"/>
<path d="M3690 5095 c14 -17 14 -18 -10 -6 -24 12 -24 11 -5 -4 11 -9 19 -22
17 -28 -3 -9 -1 -9 8 -1 15 15 9 46 -10 52 -13 5 -13 3 0 -13z"/>
<path d="M4054 5064 c-18 -14 -18 -15 4 -4 12 6 22 13 22 15 0 8 -5 6 -26 -11z"/>
<path d="M4140 4910 c0 -5 5 -10 11 -10 5 0 7 5 4 10 -3 6 -8 10 -11 10 -2 0
-4 -4 -4 -10z"/>
<path d="M4326 4912 c-3 -5 1 -9 9 -9 8 0 12 4 9 9 -3 4 -7 8 -9 8 -2 0 -6 -4
-9 -8z"/>
<path d="M4150 4870 c0 -5 7 -7 15 -4 8 4 15 8 15 10 0 2 -7 4 -15 4 -8 0 -15
-4 -15 -10z"/>
<path d="M4370 4856 c0 -9 32 -36 42 -36 6 0 1 9 -12 20 -23 20 -30 24 -30 16z"/>
<path d="M4536 4721 c-3 -5 1 -14 9 -21 12 -10 15 -10 15 3 0 19 -16 31 -24
18z"/>
<path d="M4431 4706 c-7 -8 -8 -17 -3 -20 6 -3 15 1 21 8 7 8 8 17 3 20 -6 3
-15 -1 -21 -8z"/>
<path d="M4737 4523 c-4 -3 -7 -11 -7 -17 0 -6 5 -5 12 2 6 6 9 14 7 17 -3 3
-9 2 -12 -2z"/>
<path d="M4852 4288 c-15 -15 -15 -25 1 -31 8 -3 14 4 15 19 2 27 1 29 -16 12z"/>
<path d="M4880 4296 c0 -2 7 -6 15 -10 8 -3 15 -1 15 4 0 6 -7 10 -15 10 -8 0
-15 -2 -15 -4z"/>
<path d="M4800 4275 c7 -8 17 -15 22 -15 6 0 5 7 -2 15 -7 8 -17 15 -22 15 -6
0 -5 -7 2 -15z"/>
<path d="M4695 4270 c-3 -5 -1 -10 4 -10 6 0 11 5 11 10 0 6 -2 10 -4 10 -3 0
-8 -4 -11 -10z"/>
<path d="M4646 4257 c3 -10 9 -15 12 -12 3 3 0 11 -7 18 -10 9 -11 8 -5 -6z"/>
<path d="M4876 4232 c-3 -5 1 -9 9 -9 8 0 12 4 9 9 -3 4 -7 8 -9 8 -2 0 -6 -4
-9 -8z"/>
<path d="M3602 3881 c2 -5 23 -24 48 -43 58 -44 108 -111 167 -223 l48 -90
110 -12 c140 -16 181 -32 244 -95 28 -29 53 -49 57 -45 4 4 -12 47 -35 96 -28
60 -46 113 -53 163 -21 145 -64 183 -223 193 -141 9 -238 24 -302 46 -64 22
-66 22 -61 10z"/>
<path d="M4534 3846 c1 -9 7 -21 13 -27 9 -9 11 -7 9 5 -1 9 -7 21 -13 27 -9
9 -11 7 -9 -5z"/>
<path d="M3207 3678 c-54 -66 -141 -209 -196 -322 -202 -414 -275 -993 -179
-1411 27 -118 57 -197 70 -189 7 4 8 2 4 -4 -8 -13 60 -142 75 -142 5 0 8 -4
7 -9 -2 -5 6 -17 17 -26 11 -9 13 -14 5 -10 -10 4 -9 2 2 -8 10 -8 15 -16 13
-19 -6 -5 60 -75 112 -120 17 -14 30 -28 28 -30 -1 -1 15 -21 37 -43 22 -22
37 -33 33 -25 -4 8 3 4 16 -10 13 -14 20 -21 16 -14 -5 7 -3 15 4 20 7 4 9 3
6 -3 -3 -5 4 -20 16 -34 12 -14 20 -20 17 -14 -3 6 6 -1 19 -15 13 -14 20 -19
16 -12 -6 11 -3 12 14 3 11 -7 21 -14 21 -17 0 -3 -4 -2 -10 1 -5 3 -10 4 -10
1 0 -3 10 -10 21 -17 17 -9 20 -8 14 3 -4 7 3 2 15 -12 12 -14 19 -19 15 -12
-5 10 -1 10 19 1 14 -7 23 -16 20 -20 -6 -11 74 -52 86 -44 6 3 10 0 10 -7 1
-8 8 -4 19 9 16 19 17 27 8 48 -12 24 -37 35 -37 15 0 -5 -4 -10 -10 -10 -16
0 0 27 23 39 15 8 16 10 3 6 -15 -4 -17 -1 -13 15 3 11 1 17 -4 14 -6 -3 -17
0 -26 8 -12 9 -15 9 -9 1 5 -9 0 -12 -18 -11 -20 2 -23 5 -15 20 6 12 6 18 -1
18 -5 0 -10 -6 -10 -12 -1 -8 -6 -6 -14 4 -7 10 -16 15 -19 11 -4 -3 -7 -1 -7
6 0 9 -9 12 -25 9 -13 -3 -22 -1 -19 3 3 5 12 9 20 9 8 0 14 4 14 10 0 6 -9 6
-25 0 -15 -6 -26 -6 -30 0 -6 10 1 14 18 11 4 0 7 3 7 9 0 15 -47 12 -53 -2
-4 -10 -6 -9 -6 1 -1 11 -4 11 -18 0 -15 -11 -15 -10 1 8 10 13 23 20 27 17 5
-3 9 1 9 8 0 9 3 9 10 -2 8 -13 10 -12 10 3 0 13 -6 16 -25 13 -15 -3 -24 0
-22 7 1 8 -12 12 -35 11 -25 0 -38 4 -38 13 0 7 -3 13 -8 13 -4 0 -13 9 -20
20 -8 14 -9 19 -1 18 6 -2 14 3 16 10 4 9 -3 11 -21 8 -15 -3 -24 -1 -21 5 4
5 11 7 16 4 5 -4 9 -1 9 4 0 6 -5 11 -10 11 -6 0 -9 6 -8 13 2 6 -2 11 -9 10
-6 -2 -15 6 -18 17 -6 18 -17 24 -38 21 -4 0 -6 2 -5 6 4 16 -23 53 -34 47 -7
-4 -8 -2 -4 5 6 9 11 9 22 0 19 -16 24 -9 12 21 -7 20 -11 22 -18 10 -8 -12
-10 -10 -11 10 -1 14 -1 29 0 33 1 5 -3 6 -9 2 -6 -4 -17 9 -25 27 l-14 33 -1
-30 -1 -30 -11 25 c-6 14 -12 32 -13 41 -2 22 -27 47 -42 42 -6 -2 -14 9 -18
25 -3 16 -17 44 -30 62 -17 23 -22 38 -15 49 5 10 5 23 1 30 -6 9 -10 2 -14
-20 -2 -19 0 -40 5 -46 7 -9 7 -13 -1 -13 -6 0 -12 -19 -12 -42 -2 -34 -3 -37
-6 -14 -11 71 39 468 56 451 3 -4 7 -11 7 -16 1 -5 2 -12 3 -15 2 -11 31 18
31 30 0 6 -4 4 -10 -4 -7 -11 -11 -9 -19 13 -13 34 -14 40 -2 33 5 -4 7 3 4
14 -3 11 -1 20 5 20 6 0 8 10 5 23 -4 18 -3 19 6 7 8 -12 11 -12 11 -1 0 11 3
11 15 1 9 -7 18 -11 20 -8 3 3 -6 11 -20 18 -14 7 -25 17 -25 22 0 5 5 6 11 2
8 -4 9 1 4 16 -5 15 -4 20 4 16 7 -4 10 0 9 11 -3 35 2 54 13 48 6 -4 10 -1 8
6 -4 32 1 50 13 43 7 -4 8 -3 4 5 -9 13 43 123 54 116 4 -3 11 2 14 11 4 9 2
13 -5 8 -8 -4 -7 0 0 15 7 11 16 21 20 21 5 0 16 12 26 26 12 18 13 24 4 19
-8 -3 -6 0 3 8 10 8 16 16 13 19 -3 2 2 5 10 5 16 0 19 -9 8 -21 -4 -3 -7 -15
-8 -24 -1 -17 13 -20 45 -12 3 0 -6 7 -20 15 l-25 14 28 -3 c15 -1 30 -6 35
-11 4 -4 3 -6 -3 -3 -6 4 -11 -8 -12 -25 -1 -28 -1 -29 7 -9 5 12 12 22 15 22
4 0 3 -5 0 -10 -4 -6 -1 -17 5 -25 10 -12 9 -15 -4 -15 -10 0 -14 -5 -11 -10
5 -8 11 -8 19 0 10 7 24 1 55 -23 47 -37 84 -48 55 -16 -9 10 -22 15 -30 12
-8 -3 -14 -1 -12 5 2 5 -25 40 -60 77 -35 37 -58 64 -53 60 6 -3 -3 26 -20 66
-51 119 -70 211 -71 339 -1 159 28 292 94 423 15 31 26 57 24 57 -3 0 -20 -19
-39 -42z m94 -945 c27 -29 28 -32 7 -17 -22 16 -54 54 -45 54 2 0 19 -16 38
-37z m-366 -851 c-3 -8 0 -19 7 -24 10 -7 10 -9 -2 -5 -8 2 -16 16 -17 31 -1
16 2 24 8 20 6 -3 8 -13 4 -22z m5 -52 c0 -5 -4 -10 -10 -10 -5 0 -10 5 -10
10 0 6 5 10 10 10 6 0 10 -4 10 -10z m123 -305 c-9 -15 -11 -15 -23 0 -11 13
-10 15 4 9 10 -4 16 -1 16 7 0 7 3 10 6 6 3 -3 2 -13 -3 -22z m117 -20 c-11
-13 -15 -13 -21 -3 -5 8 -2 15 9 19 23 9 27 3 12 -16z m-95 -25 c10 -11 16
-20 13 -20 -3 0 -13 9 -23 20 -10 11 -16 20 -13 20 3 0 13 -9 23 -20z m148
-133 c4 3 7 4 7 0 0 -17 -20 -14 -36 6 -19 22 -19 22 2 4 11 -9 24 -14 27 -10z
m298 -120 c-6 -8 -8 -17 -4 -20 3 -4 2 -7 -4 -7 -6 0 -14 7 -17 16 -3 8 -2 12
4 9 6 -3 10 -1 10 4 0 6 5 11 11 11 8 0 9 -4 0 -13z m-38 -53 c-5 -13 -2 -15
15 -9 13 4 22 2 22 -4 0 -6 5 -11 11 -11 5 0 7 5 4 10 -3 6 4 10 17 9 13 0 17
-3 11 -6 -7 -2 -13 -9 -13 -14 0 -6 5 -7 12 -3 6 4 8 3 5 -4 -9 -13 -42 -9
-79 8 -22 10 -25 16 -17 27 15 18 20 17 12 -3z"/>
<path d="M5133 3710 c-14 -6 -21 -15 -17 -24 8 -21 37 -13 41 12 1 12 2 22 0
21 -1 0 -12 -4 -24 -9z"/>
<path d="M4952 3698 c2 -6 11 -13 19 -16 12 -3 12 -2 0 6 -11 8 -11 10 0 15
10 4 8 6 -4 6 -10 1 -17 -4 -15 -11z"/>
<path d="M5020 3700 c-9 -6 -10 -10 -3 -10 6 0 15 5 18 10 8 12 4 12 -15 0z"/>
<path d="M5075 3700 c-3 -5 1 -10 9 -10 9 0 16 5 16 10 0 6 -4 10 -9 10 -6 0
-13 -4 -16 -10z"/>
<path d="M4905 3670 c-3 -5 -2 -10 4 -10 5 0 13 5 16 10 3 6 2 10 -4 10 -5 0
-13 -4 -16 -10z"/>
<path d="M5320 3599 c18 -34 21 -36 17 -9 -2 13 -9 26 -16 28 -10 3 -10 0 -1
-19z"/>
<path d="M5260 3540 c0 -11 2 -20 4 -20 2 0 6 9 9 20 3 11 1 20 -4 20 -5 0 -9
-9 -9 -20z"/>
<path d="M5345 3535 c5 -29 5 -29 -11 -10 -15 18 -16 18 -10 2 3 -10 6 -21 6
-23 0 -2 7 -4 15 -4 17 0 18 15 4 45 -7 16 -8 14 -4 -10z"/>
<path d="M5376 3463 c-3 -10 1 -38 9 -63 13 -38 14 -40 9 -10 -3 19 -5 47 -5
63 0 31 -5 35 -13 10z"/>
<path d="M5337 3443 c-10 -9 -9 -23 2 -23 5 0 11 7 15 15 5 15 -5 20 -17 8z"/>
<path d="M5362 3400 c0 -14 2 -19 5 -12 2 6 2 18 0 25 -3 6 -5 1 -5 -13z"/>
<path d="M5406 3352 c-2 -4 -1 -23 4 -42 l8 -35 -1 43 c0 43 -2 48 -11 34z"/>
<path d="M4793 3275 c0 -7 6 -11 14 -8 7 3 13 6 13 8 0 2 -6 5 -13 8 -8 3 -14
-1 -14 -8z"/>
<path d="M4758 3273 c7 -3 16 -2 19 1 4 3 -2 6 -13 5 -11 0 -14 -3 -6 -6z"/>
<path d="M4762 3238 c-6 -13 -11 -32 -9 -42 1 -10 -4 -20 -11 -22 -7 -1 -8 0
-2 3 16 7 12 26 -4 20 -10 -4 -13 -1 -10 8 8 21 -6 41 -17 24 -8 -14 28 -89
43 -89 5 0 7 -4 3 -9 -3 -5 2 -16 10 -25 9 -8 15 -19 15 -23 -2 -15 43 -103
52 -103 5 0 7 -4 3 -9 -3 -5 0 -15 7 -23 7 -7 15 -22 16 -33 4 -20 70 -157 81
-165 3 -3 7 -11 9 -18 6 -30 171 -292 177 -282 4 6 -1 18 -11 25 -12 9 -14 14
-6 15 8 0 10 5 6 13 -5 8 -2 7 9 -2 10 -8 15 -16 13 -19 -3 -2 4 -16 14 -30
11 -13 20 -28 20 -32 0 -10 -27 -7 -37 5 -4 4 -2 5 5 1 6 -4 12 -2 12 4 0 7
-6 10 -12 7 -7 -2 -11 -11 -9 -18 9 -33 3 -136 -9 -159 -7 -14 -15 -38 -16
-55 -1 -16 -3 -31 -4 -32 -2 -3 -6 -15 -9 -29 0 -4 -7 -1 -14 5 -8 6 -18 7
-22 3 -5 -4 -5 -1 -1 6 4 7 12 9 18 6 7 -5 8 -2 3 6 -6 9 -4 11 5 5 9 -6 11
-4 5 5 -6 9 -4 11 5 5 9 -6 11 -4 5 5 -6 10 -15 5 -37 -19 -16 -18 -26 -36
-23 -41 4 -6 1 -10 -6 -10 -7 0 -9 -3 -6 -7 4 -3 3 -11 -3 -17 -5 -7 -5 -17 2
-26 8 -13 9 -13 5 1 -3 9 1 16 8 16 9 0 8 -11 -7 -38 -19 -36 -17 -66 3 -54 5
4 9 -3 9 -15 0 -19 -1 -20 -16 -6 -21 21 -30 20 -13 -1 8 -9 13 -25 11 -36 -2
-12 0 -17 7 -12 6 3 9 11 6 16 -4 5 -1 9 4 9 14 0 14 -17 1 -25 -5 -3 -6 -13
-3 -23 6 -14 4 -15 -9 -4 -10 8 -19 9 -22 3 -3 -5 0 -12 6 -15 10 -5 10 -7 1
-12 -7 -3 -13 -10 -13 -15 0 -6 5 -7 12 -3 8 5 9 1 4 -12 -5 -15 -2 -14 17 6
14 14 23 28 21 31 -2 4 10 6 26 5 18 0 30 -6 30 -15 0 -11 -3 -11 -17 0 -15
13 -15 12 -4 -8 6 -13 7 -23 2 -23 -5 0 -7 -10 -3 -22 3 -14 1 -19 -6 -14 -6
3 -14 1 -18 -5 -4 -8 -3 -9 4 -5 7 4 12 2 12 -4 0 -6 5 -8 12 -4 7 4 8 3 4 -4
-4 -7 -4 -18 1 -24 4 -7 9 -26 10 -43 2 -42 1 -42 17 -42 8 0 14 3 14 6 -1 3
4 17 10 31 11 24 12 24 8 -7 -2 -17 -7 -37 -12 -44 -4 -7 -3 -10 3 -6 6 4 14
-1 17 -10 4 -9 2 -19 -4 -23 -6 -4 -1 -15 14 -29 l23 -22 5 26 c4 20 2 24 -11
20 -12 -3 -17 1 -17 14 0 11 3 19 6 18 3 -1 5 2 5 8 0 5 -3 9 -7 8 -5 -2 -8 1
-8 6 0 6 8 9 18 8 20 -1 26 -28 8 -39 -6 -4 -1 -6 11 -6 15 2 20 8 18 25 -1
13 1 23 5 23 7 0 42 64 46 85 1 6 6 19 10 29 6 15 4 18 -7 12 -8 -4 -4 1 8 11
12 10 25 32 29 48 4 17 11 35 16 42 6 7 10 28 11 47 1 20 5 32 11 29 5 -4 7 1
3 10 -3 10 -2 17 3 17 6 0 10 7 10 16 0 9 -5 12 -12 8 -8 -4 -10 -3 -5 2 5 5
14 9 20 9 8 0 11 15 10 38 -1 21 1 36 6 33 4 -3 7 5 6 17 -1 12 -3 28 -4 36
-1 11 -5 10 -16 -5 -19 -25 -19 -40 1 -24 13 12 14 10 3 -13 -7 -15 -16 -24
-21 -21 -5 3 -7 9 -4 12 3 3 -1 14 -11 24 -15 17 -11 23 18 20 3 -1 13 12 23
29 9 16 13 29 7 29 -5 0 -12 -6 -14 -12 -3 -8 -6 -6 -6 5 -1 10 6 17 18 17 12
0 20 9 23 25 5 25 -7 36 -14 14 -2 -7 -4 5 -5 25 -1 20 3 36 8 36 6 0 9 6 8
13 -1 6 0 21 1 32 2 17 3 17 10 -5 7 -21 8 -22 10 -5 1 11 3 36 5 55 2 19 -1
38 -6 41 -5 3 -3 14 5 24 14 19 14 19 13 -5 -1 -14 2 -38 6 -55 6 -22 5 -26
-3 -15 -5 8 -10 11 -10 5 1 -5 8 -19 16 -30 15 -19 15 -16 10 38 -3 33 -1 57
5 57 5 0 9 5 9 11 0 5 -5 7 -12 3 -7 -5 -8 -3 -2 7 12 21 13 59 0 59 -8 0 -11
58 -10 188 0 103 -3 212 -7 242 -8 54 -8 54 -5 -17 1 -52 -2 -73 -11 -73 -6 0
-14 12 -16 28 -2 15 -5 -1 -6 -34 -1 -43 -7 -68 -20 -85 -10 -13 -19 -28 -20
-34 -1 -5 -9 -10 -19 -11 -32 -2 -34 -4 -22 -19 7 -9 8 -15 2 -15 -5 0 -8 -10
-5 -21 6 -21 7 -21 20 -3 7 10 11 24 8 32 -3 7 0 10 6 7 5 -4 7 -15 4 -25 -3
-10 -1 -21 5 -25 8 -5 8 -11 -1 -21 -9 -12 -15 -12 -27 -2 -13 11 -14 11 -7
-1 6 -11 2 -13 -18 -9 -15 3 -31 0 -37 -7 -8 -10 -3 -12 20 -10 17 1 29 0 26
-2 -3 -3 0 -17 5 -31 7 -18 6 -28 -2 -36 -9 -8 -10 -8 -5 1 3 6 2 22 -3 35 -8
20 -10 17 -12 -22 -1 -25 -1 -49 0 -53 1 -5 -3 -6 -8 -3 -5 4 -8 28 -6 54 2
26 1 39 -1 30 -3 -10 -10 -18 -15 -18 -6 0 -7 -6 -3 -12 6 -10 5 -10 -8 -1 -8
7 -17 10 -20 7 -4 -3 -5 9 -4 26 2 29 1 30 -11 14 -7 -10 -13 -13 -13 -5 0 7
-4 9 -10 6 -5 -3 -10 1 -10 9 0 9 8 16 18 16 14 0 15 2 2 10 -9 6 -17 5 -22
-3 -4 -7 -8 -9 -9 -4 -1 6 -2 11 -8 35 -1 4 -6 -3 -11 -15 -5 -13 -17 -23 -27
-23 -13 0 -15 2 -5 9 20 12 -12 34 -43 29 -14 -3 -25 -1 -25 4 0 5 -6 6 -12 2
-9 -5 -8 -2 1 10 13 15 12 18 -8 23 -16 4 -21 11 -18 24 3 11 1 16 -5 13 -7
-4 -9 10 -6 40 3 29 1 46 -6 46 -8 0 -8 2 0 8 6 4 10 14 9 24 -2 10 6 18 20
21 31 5 43 -3 47 -35 2 -14 9 -32 16 -41 7 -8 9 -23 6 -33 -6 -18 -6 -18 7 -1
14 17 15 16 17 -14 3 -40 12 -52 12 -16 0 14 5 29 12 33 7 5 8 3 3 -6 -5 -9
-4 -11 3 -6 16 9 15 11 -5 32 -13 13 -14 19 -5 22 15 5 16 23 1 20 -6 -2 -14
10 -16 27 -5 32 -9 40 -24 40 -5 0 -9 3 -9 8 0 4 -11 18 -25 31 -14 13 -25 30
-25 37 0 8 -5 21 -11 29 -8 12 -9 10 -4 -7 3 -13 2 -31 -4 -40 -10 -17 -10
-17 -12 2 -1 11 -1 24 0 29 1 5 -1 16 -5 25 -4 9 -8 21 -9 26 0 6 -6 9 -12 8
-6 -1 -14 14 -18 33 -4 22 -11 34 -18 31 -14 -5 -39 18 -30 27 4 3 1 6 -5 6
-15 0 -15 -13 -1 -27 15 -15 -1 -22 -26 -12 -11 4 -14 8 -7 8 9 1 12 11 8 32
-4 25 -2 30 12 25 9 -3 4 5 -12 20 l-28 25 -23 -21 c-22 -21 -24 -21 -34 -3
-8 14 -11 15 -11 3 -1 -10 -4 -9 -10 5 -6 14 -9 15 -10 5 -1 -11 -3 -10 -9 3
-6 17 -8 17 -19 -5z m131 -14 c3 -3 3 -12 0 -19 -6 -17 -33 -8 -33 11 0 14 21
19 33 8z m-83 -18 c0 -2 -7 -6 -15 -10 -8 -3 -15 -1 -15 4 0 6 7 10 15 10 8 0
15 -2 15 -4z m76 -79 c16 6 21 -32 5 -41 -5 -4 -7 4 -3 16 3 14 2 19 -6 14
-18 -11 -32 2 -24 22 6 16 7 16 10 0 2 -10 9 -15 18 -11z m-86 -20 c0 -4 -6
-2 -14 5 -8 7 -12 17 -9 22 5 8 23 -12 23 -27z m151 -13 c4 -16 7 -23 8 -16 2
28 19 10 17 -19 -1 -17 4 -38 12 -45 7 -8 9 -14 3 -14 -5 0 -13 5 -16 10 -3 6
-17 10 -31 10 -14 0 -23 4 -20 8 2 4 0 14 -6 22 -8 12 -9 12 -4 -2 3 -10 1
-20 -3 -23 -5 -2 -11 6 -13 20 -3 14 -1 25 3 25 5 0 8 3 8 8 -1 4 -1 17 0 29
2 32 35 22 42 -13z m-111 -66 c0 -4 5 -8 10 -8 6 0 10 7 10 15 0 8 4 15 10 15
6 0 5 -10 -2 -25 -8 -18 -15 -22 -23 -15 -7 5 -16 6 -20 2 -5 -4 -5 -1 -1 5 4
7 2 23 -4 35 -11 22 -10 22 4 4 9 -11 16 -23 16 -28z m104 -30 c-3 -4 0 -8 6
-8 6 0 10 -6 9 -12 -3 -29 2 -49 11 -43 6 3 10 2 10 -4 0 -18 -20 -23 -26 -7
-3 9 -10 16 -16 16 -5 0 -6 -6 -2 -12 5 -10 4 -10 -5 -2 -9 8 -10 18 -3 30 11
23 5 47 -10 38 -6 -4 -8 -3 -5 3 3 5 13 10 21 10 8 0 13 -4 10 -9z m-71 -32
c4 -10 1 -13 -8 -9 -8 3 -12 9 -9 14 7 12 11 11 17 -5z m24 -45 c-1 -3 5 -17
12 -30 10 -17 10 -26 1 -35 -8 -8 -10 -7 -5 7 5 10 2 17 -6 17 -7 0 -9 3 -6 7
4 3 0 14 -8 23 -13 14 -13 17 -1 17 8 0 14 -3 13 -6z m103 -15 c0 -3 -4 -8
-10 -11 -5 -3 -10 -1 -10 4 0 6 5 11 10 11 6 0 10 -2 10 -4z m427 -38 c-3 -8
-6 -5 -6 6 -1 11 2 17 5 13 3 -3 4 -12 1 -19z m-413 -39 c-3 -5 -10 -7 -15 -3
-5 3 -7 10 -3 15 3 5 10 7 15 3 5 -3 7 -10 3 -15z m425 -120 c-1 -101 -9 -128
-22 -74 -3 11 -5 -2 -6 -29 -2 -79 -12 -46 -17 53 -2 57 0 91 6 91 6 0 10 -20
10 -45 0 -25 3 -45 8 -45 4 0 7 36 7 80 0 44 3 80 8 80 4 0 7 -50 6 -111z
m-441 87 c-7 -8 -15 -12 -17 -11 -5 6 10 25 20 25 5 0 4 -6 -3 -14z m-11 -68
c-3 -8 -6 -5 -6 6 -1 11 2 17 5 13 3 -3 4 -12 1 -19z m60 -4 c-3 -3 -12 -4
-19 -1 -8 3 -5 6 6 6 11 1 17 -2 13 -5z m-32 -32 c-3 -3 -11 0 -18 7 -9 10 -8
11 6 5 10 -3 15 -9 12 -12z m108 -62 c30 -15 35 -27 12 -27 -8 0 -12 4 -9 9 3
4 -1 8 -9 8 -8 0 -21 8 -28 17 -8 9 -9 15 -4 12 6 -3 22 -11 38 -19z m38 2
c-7 -2 -18 1 -23 6 -8 8 -4 9 13 5 13 -4 18 -8 10 -11z m216 -6 c1 -12 -1 -15
-4 -8 -3 6 -11 12 -19 12 -9 0 -13 4 -10 8 10 17 32 8 33 -12z m-177 -186 c0
-5 -4 -10 -10 -10 -5 0 -10 5 -10 10 0 6 5 10 10 10 6 0 10 -4 10 -10z m-43
-62 c-3 -8 -6 -5 -6 6 -1 11 2 17 5 13 3 -3 4 -12 1 -19z m-11 -143 c-1 -8 -5
-17 -8 -21 -5 -4 -4 16 1 34 3 9 9 -1 7 -13z m-115 -218 c-10 -9 -11 -8 -5 6
3 10 9 15 12 12 3 -3 0 -11 -7 -18z m296 -24 c-9 -9 -20 -13 -24 -9 -4 4 1 14
11 22 25 18 35 8 13 -13z m-93 -19 c6 2 8 1 3 -1 -4 -3 -4 -10 0 -16 5 -8 2
-8 -9 0 -8 7 -17 11 -20 8 -2 -3 -5 2 -5 10 0 10 4 12 10 6 5 -5 15 -8 21 -7z
m-34 -34 c0 -5 -5 -10 -11 -10 -5 0 -7 5 -4 10 3 6 8 10 11 10 2 0 4 -4 4 -10z
m37 -65 c-4 -8 -11 -15 -17 -15 -7 0 -7 6 0 21 13 23 26 19 17 -6z m-93 0 c-4
-8 -8 -15 -10 -15 -2 0 -4 7 -4 15 0 8 4 15 10 15 5 0 7 -7 4 -15z m120 -16
c-3 -6 0 -15 7 -20 9 -6 10 -9 2 -9 -6 0 -15 5 -18 10 -4 6 -12 7 -18 3 -7 -4
-6 0 2 10 15 19 36 24 25 6z m-13 -62 c-10 -9 -11 -8 -5 6 3 10 9 15 12 12 3
-3 0 -11 -7 -18z m-11 -81 c0 -2 -8 -10 -17 -17 -16 -13 -17 -12 -4 4 13 16
21 21 21 13z m-45 -16 c3 -5 2 -10 -4 -10 -5 0 -13 5 -16 10 -3 6 -2 10 4 10
5 0 13 -4 16 -10z"/>
<path d="M5453 3095 c0 -8 4 -12 9 -9 5 3 6 10 3 15 -9 13 -12 11 -12 -6z"/>
<path d="M5473 2990 c0 -30 2 -43 4 -27 2 15 2 39 0 55 -2 15 -4 2 -4 -28z"/>
<path d="M5471 2894 c0 -11 3 -14 6 -6 3 7 2 16 -1 19 -3 4 -6 -2 -5 -13z"/>
<path d="M5472 2850 c0 -14 2 -19 5 -12 2 6 2 18 0 25 -3 6 -5 1 -5 -13z"/>
<path d="M5379 2858 c-5 -18 -6 -38 -1 -34 7 8 12 36 6 36 -2 0 -4 -1 -5 -2z"/>
<path d="M5175 2720 c-3 -5 -1 -10 4 -10 6 0 11 5 11 10 0 6 -2 10 -4 10 -3 0
-8 -4 -11 -10z"/>
<path d="M5140 2705 c0 -8 4 -15 8 -15 5 0 9 7 9 15 0 8 -4 15 -9 15 -4 0 -8
-7 -8 -15z"/>
<path d="M5467 2713 c-2 -5 0 -39 3 -78 l7 -70 1 78 c2 71 -1 89 -11 70z"/>
<path d="M3260 2700 c0 -5 7 -10 16 -10 8 0 12 5 9 10 -3 6 -10 10 -16 10 -5
0 -9 -4 -9 -10z"/>
<path d="M3127 2661 c6 -7 9 -20 6 -27 -3 -8 -3 -14 0 -14 14 0 14 30 -1 41
-14 11 -15 11 -5 0z"/>
<path d="M3400 2655 c0 -7 81 -47 86 -43 2 3 -17 14 -41 26 -25 12 -45 20 -45
17z"/>
<path d="M3510 2600 c8 -5 20 -10 25 -10 6 0 3 5 -5 10 -8 5 -19 10 -25 10 -5
0 -3 -5 5 -10z"/>
<path d="M3065 2592 c3 -3 -1 -12 -8 -21 -10 -14 -10 -14 5 -3 9 8 22 11 27 7
6 -3 8 0 5 8 -2 7 -11 14 -19 14 -8 0 -13 -3 -10 -5z"/>
<path d="M3765 2587 c-38 -6 -72 -12 -74 -14 -3 -2 5 -14 17 -26 12 -13 19
-27 15 -31 -5 -4 -3 -6 2 -5 6 2 20 -3 33 -10 20 -11 21 -15 10 -29 -12 -15
-11 -16 4 -4 15 12 25 8 79 -34 49 -38 59 -49 48 -58 -18 -14 -20 -43 -5 -49
7 -3 13 4 13 16 3 35 18 38 53 9 25 -22 30 -31 20 -37 -8 -5 -11 -4 -7 2 9 14
-19 37 -34 27 -8 -5 -9 -3 -4 6 5 9 4 11 -4 6 -9 -6 -9 -11 0 -22 6 -7 16 -11
22 -7 6 4 8 -2 5 -15 -4 -13 -2 -20 6 -19 6 1 10 -4 9 -10 -2 -7 3 -12 10 -10
6 1 11 -4 9 -11 -1 -8 2 -11 8 -7 5 3 10 2 10 -2 0 -5 9 -9 20 -9 26 0 25 3
-10 33 -17 13 -27 29 -24 34 7 12 34 -8 31 -23 -1 -6 4 -13 12 -16 10 -3 11 0
5 9 -7 12 -5 12 9 1 9 -8 15 -19 14 -24 -1 -6 4 -13 12 -16 9 -3 11 0 6 9 -5
7 8 0 28 -15 20 -16 34 -32 31 -37 -7 -13 -14 -11 -12 2 2 6 -1 13 -7 15 -5 2
-10 -7 -10 -20 0 -13 3 -22 8 -19 4 2 7 -3 7 -12 0 -10 5 -13 12 -9 7 5 9 2 5
-9 -3 -9 1 -18 9 -21 25 -10 34 -7 34 10 0 14 -2 15 -17 3 -16 -13 -17 -12 -5
3 11 14 10 18 -5 27 -11 6 -13 11 -5 11 7 0 10 5 6 11 -4 6 28 -14 70 -46 42
-32 76 -59 76 -60 0 -2 -15 -2 -34 0 -26 1 -33 -2 -29 -12 3 -8 12 -12 21 -8
9 3 13 3 10 -1 -8 -8 14 -34 25 -27 4 2 7 -6 8 -19 0 -15 3 -18 6 -8 4 8 12
21 20 28 11 11 13 7 13 -27 0 -22 -4 -43 -10 -46 -5 -3 -10 -1 -10 6 0 7 -2
10 -5 8 -2 -3 0 -20 5 -38 6 -22 6 -40 -1 -53 -9 -18 -8 -18 10 -8 12 6 21 18
22 28 0 9 7 -5 16 -33 8 -27 19 -55 24 -61 5 -7 3 -11 -6 -11 -8 0 -12 4 -9 9
3 4 -6 8 -19 8 -24 0 -24 0 -9 -35 12 -26 19 -32 29 -24 7 6 11 15 8 19 -3 5
1 7 9 6 25 -4 55 -37 51 -57 -2 -10 1 -19 6 -19 6 0 7 -4 4 -10 -3 -5 -1 -10
5 -10 6 0 8 11 6 24 -3 19 -1 23 11 19 12 -5 12 -7 1 -14 -9 -6 -10 -9 -1 -9
7 0 10 -7 7 -15 -4 -8 -2 -15 4 -15 6 0 13 6 15 13 4 9 6 9 6 0 1 -7 11 -17
22 -24 16 -8 20 -8 14 1 -5 8 0 11 16 9 13 -2 30 0 36 4 9 6 11 3 7 -10 -5
-16 -4 -16 10 1 13 16 18 17 31 6 12 -10 15 -10 15 2 0 10 15 14 50 16 28 1
50 -2 50 -8 0 -5 5 -10 11 -10 5 0 7 5 4 10 -3 6 0 10 8 10 8 0 18 -7 21 -16
5 -13 9 -14 21 -4 8 7 12 16 9 21 -3 5 0 9 5 9 6 0 11 -4 11 -9 0 -6 9 -9 19
-8 11 0 17 5 15 9 -3 4 0 8 5 8 6 0 11 5 11 12 0 6 -8 4 -19 -6 -20 -18 -38
-6 -25 17 4 6 -2 4 -13 -6 -11 -9 -22 -14 -26 -11 -3 3 -3 -5 0 -18 5 -21 4
-21 -8 -6 -11 14 -34 19 -107 22 -69 3 -91 2 -86 -7 4 -7 3 -8 -1 -4 -5 4 -10
13 -11 20 -2 14 40 14 131 2 36 -5 61 -3 87 8 24 10 39 12 46 5 7 -7 10 -4 9
8 -1 11 4 18 11 16 8 -1 11 2 8 6 -3 5 4 18 17 28 19 16 20 17 8 1 -8 -9 -11
-20 -8 -24 4 -3 1 -13 -6 -22 -11 -14 -10 -14 5 -2 10 7 15 17 12 23 -3 5 0
15 6 23 22 27 22 103 0 198 -26 108 -23 145 20 244 16 40 30 86 30 103 0 77
-77 151 -159 152 -76 1 -101 -36 -127 -182 -14 -86 -14 -100 1 -196 19 -112
15 -158 -15 -197 -42 -53 -117 -39 -169 33 -17 23 -45 78 -63 122 l-33 81
-220 167 c-121 92 -251 193 -290 224 -38 31 -72 55 -75 54 -3 0 -36 -6 -75
-11z m569 -528 c-3 -5 -10 -7 -15 -3 -5 3 -7 10 -3 15 3 5 10 7 15 3 5 -3 7
-10 3 -15z m26 -106 c0 -5 -5 -15 -10 -23 -8 -12 -10 -11 -10 8 0 12 5 22 10
22 6 0 10 -3 10 -7z m208 -240 c-10 -2 -28 -2 -40 0 -13 2 -5 4 17 4 22 1 32
-1 23 -4z"/>
<path d="M3568 2583 c7 -3 16 -2 19 1 4 3 -2 6 -13 5 -11 0 -14 -3 -6 -6z"/>
<path d="M3620 2572 c8 -6 18 -8 24 -5 5 3 6 1 3 -5 -9 -14 3 -43 14 -36 5 3
9 10 9 15 0 6 -5 7 -12 3 -7 -4 -8 -3 -4 4 5 9 13 9 29 1 20 -10 21 -10 7 5
-8 8 -31 18 -50 22 -25 4 -31 3 -20 -4z"/>
<path d="M3592 2547 c-8 -10 -5 -13 14 -15 15 -1 24 3 24 13 0 18 -24 20 -38
2z"/>
<path d="M3040 2536 c0 -2 8 -10 18 -17 15 -13 16 -12 3 4 -13 16 -21 21 -21
13z"/>
<path d="M3041 2503 c1 -5 1 -15 0 -23 -1 -13 -2 -13 -11 0 -6 9 -10 10 -10 3
0 -20 20 -26 26 -8 5 12 9 13 14 5 4 -7 10 -8 13 -3 3 5 -3 14 -14 21 -10 7
-19 9 -18 5z"/>
<path d="M3013 2445 c0 -8 3 -13 5 -10 3 3 10 0 17 -5 8 -7 12 -5 12 5 0 8 -3
13 -5 10 -3 -3 -10 0 -17 5 -8 7 -12 5 -12 -5z"/>
<path d="M3812 2425 c-22 -12 -22 -12 10 -22 19 -6 32 -15 30 -23 -3 -11 0
-11 12 -1 8 7 21 9 28 5 15 -8 7 0 -32 32 -21 18 -29 19 -48 9z m43 -15 c17
-19 17 -19 -8 -7 -14 6 -23 15 -21 19 7 11 9 10 29 -12z"/>
<path d="M5416 2324 c-4 -9 -4 -19 -1 -22 2 -3 7 3 11 12 4 9 4 19 1 22 -2 3
-7 -3 -11 -12z"/>
<path d="M2989 2278 c-5 -18 -6 -38 -1 -34 7 8 12 36 6 36 -2 0 -4 -1 -5 -2z"/>
<path d="M2940 2255 c0 -20 17 -28 23 -11 3 8 -1 17 -9 20 -8 3 -14 -1 -14 -9z"/>
<path d="M4042 2233 c-10 -4 -9 -9 4 -24 17 -19 40 -27 29 -10 -3 5 -1 12 4
15 5 4 13 1 17 -5 4 -7 3 -9 -2 -6 -5 3 -10 -3 -10 -13 0 -14 4 -16 13 -8 21
17 9 51 -18 53 -13 1 -30 0 -37 -2z"/>
<path d="M5411 2222 c-13 -24 -15 -49 -3 -38 4 4 7 11 7 14 0 4 4 13 9 20 4 7
6 16 3 19 -3 2 -10 -4 -16 -15z"/>
<path d="M4185 2164 c11 -11 20 -31 20 -47 -1 -32 10 -43 28 -29 7 5 23 8 36
6 l24 -4 -24 18 c-51 39 -103 73 -84 56z"/>
<path d="M2936 1952 c-2 -4 -1 -14 4 -22 7 -11 9 -9 7 8 -1 24 -3 26 -11 14z"/>
<path d="M4985 1930 c3 -5 1 -18 -5 -29 -7 -13 -7 -22 0 -26 5 -3 10 3 10 14
0 11 5 23 10 26 12 7 4 25 -11 25 -6 0 -7 -4 -4 -10z"/>
<path d="M4345 1860 c-16 -17 -16 -20 -3 -15 9 4 19 13 22 21 7 19 2 18 -19
-6z"/>
<path d="M5045 1851 c-10 -17 12 -21 25 -6 10 12 10 15 -3 15 -9 0 -18 -4 -22
-9z"/>
<path d="M4969 1844 c6 -3 8 -11 5 -18 -3 -8 2 -16 12 -20 15 -6 15 -4 3 10
-8 10 -13 20 -11 23 2 3 -1 6 -7 7 -7 2 -7 0 -2 -2z"/>
<path d="M4402 1767 c-16 -19 -3 -30 17 -14 14 11 15 10 1 -7 -11 -14 -12 -20
-3 -23 32 -11 41 17 13 42 -14 13 -19 13 -28 2z"/>
<path d="M5140 1579 c0 -5 5 -7 10 -4 7 4 8 -3 4 -22 -8 -34 -23 -55 -34 -48
-5 3 -11 2 -14 -3 -2 -4 3 -8 13 -9 25 -2 68 77 49 89 -18 11 -28 10 -28 -3z"/>
<path d="M5126 1533 c-6 -14 -5 -15 5 -6 7 7 10 15 7 18 -3 3 -9 -2 -12 -12z"/>
<path d="M5050 1513 c0 -19 17 -24 30 -8 9 10 9 15 1 15 -6 0 -11 -6 -11 -12
0 -9 -4 -8 -10 2 -6 9 -10 10 -10 3z"/>
<path d="M5110 1470 c0 -5 -6 -9 -12 -7 -7 1 -12 -6 -12 -15 1 -9 -5 -19 -13
-23 -10 -3 -13 -1 -10 9 6 15 -17 16 -30 1 -4 -4 -2 -5 5 -1 7 4 12 2 13 -6 1
-7 2 -20 3 -28 1 -8 -3 -21 -8 -27 -5 -8 -4 -13 3 -13 6 0 20 17 31 38 11 20
27 47 36 60 10 13 12 22 5 22 -6 0 -11 -4 -11 -10z m-37 -65 c-3 -9 -8 -14
-10 -11 -3 3 -2 9 2 15 9 16 15 13 8 -4z"/>
<path d="M5019 1368 c-1 -7 -2 -22 -3 -32 -1 -10 -9 -20 -19 -22 -14 -2 -16 1
-7 11 8 9 7 14 -3 18 -10 4 -13 -3 -12 -24 2 -28 -20 -49 -28 -26 -2 8 -5 8
-11 -1 -4 -7 -3 -12 3 -12 7 0 7 -8 1 -25 -5 -14 -7 -25 -4 -25 3 0 -4 -13
-16 -30 -12 -16 -17 -30 -12 -30 14 0 33 26 25 34 -4 4 0 4 10 0 11 -4 17 -1
17 8 0 8 11 28 25 44 14 16 35 44 46 63 16 28 17 32 4 27 -13 -4 -15 -1 -10
14 4 11 4 20 1 20 -3 0 -7 -6 -7 -12z m-28 -86 c-5 -9 -19 -26 -31 -37 l-23
-20 14 25 c12 21 38 49 47 50 1 0 -2 -8 -7 -18z"/>
<path d="M4915 1350 c-3 -5 -1 -10 4 -10 6 0 11 5 11 10 0 6 -2 10 -4 10 -3 0
-8 -4 -11 -10z"/>
<path d="M4865 1158 c5 -25 -8 -47 -18 -31 -2 5 -2 2 -1 -4 2 -7 -1 -13 -5
-13 -5 0 -12 6 -15 13 -3 6 -4 0 -1 -16 3 -15 2 -27 -2 -26 -21 4 -33 -3 -44
-23 -12 -23 -12 -23 10 -4 20 18 29 11 14 -10 -5 -6 13 12 39 39 26 28 45 55
41 60 -3 6 -1 7 5 3 6 -3 13 -2 17 4 3 5 -3 10 -14 10 -10 0 -22 6 -25 13 -3
6 -4 0 -1 -15z"/>
<path d="M3597 1127 l-17 -32 20 24 c17 20 26 41 18 41 -2 0 -11 -15 -21 -33z"/>
<path d="M3619 1126 c-14 -30 -14 -33 -1 -28 10 3 13 1 8 -6 -10 -17 0 -15 18
4 11 10 21 12 32 6 19 -11 20 -22 2 -34 -9 -6 -5 -7 11 -3 17 5 22 4 16 -5 -5
-9 -4 -11 4 -6 9 6 9 11 1 21 -7 8 -7 16 -2 19 6 3 13 -1 16 -10 4 -10 13 -13
26 -9 11 4 20 3 19 -2 -5 -27 2 -34 17 -18 13 12 14 19 5 28 -6 6 -11 8 -11 5
0 -4 -16 0 -35 8 -20 8 -40 12 -45 9 -4 -3 -16 2 -24 11 -9 8 -16 12 -16 7 -1
-4 -6 2 -13 15 -13 22 -13 22 -28 -12z m26 -5 c3 -5 1 -12 -5 -16 -5 -3 -10 1
-10 9 0 18 6 21 15 7z"/>
<path d="M3650 1080 c-9 -6 -10 -10 -3 -10 6 0 15 5 18 10 8 12 4 12 -15 0z"/>
<path d="M3730 1050 c-9 -6 -10 -10 -3 -10 6 0 15 5 18 10 8 12 4 12 -15 0z"/>
<path d="M3809 1043 c-13 -16 -12 -17 4 -4 16 13 21 21 13 21 -2 0 -10 -8 -17
-17z"/>
<path d="M3851 1051 c-10 -7 -10 -10 -1 -16 7 -4 16 -1 21 6 8 12 11 11 20 -3
5 -10 18 -18 27 -18 15 0 15 -2 2 -10 -13 -8 -12 -10 3 -10 9 0 17 5 17 10 0
13 12 13 47 -2 15 -6 37 -10 48 -9 17 2 18 0 5 -9 -12 -9 -10 -10 10 -5 41 12
42 20 2 22 -46 1 -82 12 -82 24 0 5 -13 7 -30 4 -21 -4 -28 -2 -25 7 6 15 -43
21 -64 9z"/>
<path d="M3860 1015 c-15 -8 -19 -14 -10 -14 18 -1 46 16 40 23 -3 2 -16 -2
-30 -9z"/>
<path d="M4736 980 c-20 -22 -34 -40 -30 -40 4 0 25 18 46 40 22 22 35 40 30
40 -5 0 -25 -18 -46 -40z"/>
<path d="M4096 995 c-3 -8 -13 -15 -22 -15 -10 0 -15 -2 -12 -5 10 -11 55 6
55 21 0 18 -13 18 -21 -1z"/>
<path d="M3940 991 c-23 -7 -22 -8 14 -15 40 -8 52 -4 41 13 -7 12 -18 12 -55
2z m47 -7 c-3 -3 -12 -4 -19 -1 -8 3 -5 6 6 6 11 1 17 -2 13 -5z"/>
<path d="M4199 991 c11 -7 9 -10 -10 -14 -17 -3 -13 -5 13 -6 66 -2 48 -16
-22 -16 -37 0 -66 4 -63 8 4 7 -46 -1 -55 -8 -7 -6 98 -16 107 -11 5 3 11 1
13 -5 3 -8 21 -9 58 -4 47 6 51 9 32 16 -13 5 -26 18 -29 29 -4 14 -14 20 -32
20 -19 0 -22 -3 -12 -9z m18 -47 c-3 -3 -12 -4 -19 -1 -8 3 -5 6 6 6 11 1 17
-2 13 -5z"/>
<path d="M4295 970 c-3 -5 -1 -10 4 -10 6 0 11 5 11 10 0 6 -2 10 -4 10 -3 0
-8 -4 -11 -10z"/>
<path d="M4353 961 c1 -16 6 -20 22 -15 33 10 40 10 38 -3 -2 -7 2 -13 8 -13
6 0 8 7 5 16 -5 13 -1 15 18 10 14 -3 27 -2 31 4 3 6 -15 8 -47 6 -29 -2 -58
1 -65 6 -8 7 -11 4 -10 -11z"/>
<path d="M4018 963 c6 -2 18 -2 25 0 6 3 1 5 -13 5 -14 0 -19 -2 -12 -5z"/>
<path d="M4498 963 c7 -3 16 -2 19 1 4 3 -2 6 -13 5 -11 0 -14 -3 -6 -6z"/>
<path d="M4670 949 c0 -5 -5 -7 -12 -3 -7 5 -8 3 -3 -6 6 -10 1 -12 -18 -8
-15 3 -24 1 -21 -3 3 -5 17 -9 32 -9 21 0 28 5 29 20 1 11 0 20 -3 20 -2 0 -4
-5 -4 -11z"/>
<path d="M4475 939 c-20 -4 -5 -7 42 -8 39 0 74 2 76 7 6 9 -78 9 -118 1z"/>
<path d="M4288 923 c18 -2 45 -2 60 0 15 2 0 4 -33 4 -33 0 -45 -2 -27 -4z"/>
<path d="M4453 913 c9 -2 25 -2 35 0 9 3 1 5 -18 5 -19 0 -27 -2 -17 -5z"/>
</g>
</svg>
